<svg width="96" height="44" viewBox="0 0 96 44" fill="none" xmlns="http://www.w3.org/2000/svg">
<rect width="96" height="44" fill="#2E2E34"/>
<rect x="10" y="6" width="76" height="32" rx="8" fill="#D22D39"/>
<rect x="10.5" y="6.5" width="75" height="31" rx="7.5" stroke="white" stroke-opacity="0.08"/>
<path d="M27.134 27V17.34H30.228C31.6093 17.34 32.6967 17.7553 33.49 18.586C34.2927 19.4167 34.694 20.6113 34.694 22.17C34.694 23.7287 34.2927 24.9233 33.49 25.754C32.6967 26.5847 31.6093 27 30.228 27H27.134ZM30.228 25.782C31.2267 25.782 32.0013 25.488 32.552 24.9C33.1027 24.3027 33.378 23.3927 33.378 22.17C33.378 20.9473 33.1027 20.042 32.552 19.454C32.0013 18.8567 31.2267 18.558 30.228 18.558H28.45V25.782H30.228ZM38.0852 27.196C37.5065 27.196 37.0165 27.028 36.6152 26.692C36.2138 26.356 36.0132 25.8753 36.0132 25.25C36.0132 24.4753 36.3678 23.906 37.0772 23.542C37.7865 23.178 38.8132 22.9867 40.1572 22.968V22.646C40.1572 22.2073 40.0312 21.8667 39.7792 21.624C39.5272 21.3813 39.1725 21.26 38.7152 21.26C38.3885 21.26 38.0618 21.3347 37.7352 21.484C37.4085 21.624 37.1098 21.8293 36.8392 22.1L36.1812 21.288C36.4798 20.9613 36.8578 20.7047 37.3152 20.518C37.7725 20.322 38.2532 20.224 38.7572 20.224C39.6252 20.224 40.2832 20.4293 40.7312 20.84C41.1792 21.2507 41.4032 21.8527 41.4032 22.646V27H40.2832L40.1572 26.104C39.9612 26.4027 39.6765 26.6593 39.3032 26.874C38.9392 27.0887 38.5332 27.196 38.0852 27.196ZM38.3652 26.174C39.0745 26.174 39.6718 25.8147 40.1572 25.096V23.85C39.1585 23.878 38.4212 24.004 37.9452 24.228C37.4785 24.4427 37.2452 24.7693 37.2452 25.208C37.2452 25.5253 37.3432 25.768 37.5392 25.936C37.7445 26.0947 38.0198 26.174 38.3652 26.174ZM43.4426 27V20.42H44.5486L44.6886 21.302C44.9032 20.9847 45.1786 20.728 45.5146 20.532C45.8599 20.3267 46.2519 20.224 46.6906 20.224C47.3906 20.224 47.9226 20.4247 48.2866 20.826C48.6506 21.2273 48.8326 21.792 48.8326 22.52V27H47.5866V22.618C47.5866 22.1887 47.4839 21.8573 47.2786 21.624C47.0732 21.3907 46.7606 21.274 46.3406 21.274C46.0046 21.274 45.7012 21.3627 45.4306 21.54C45.1599 21.7173 44.9126 21.988 44.6886 22.352V27H43.4426ZM53.2607 29.856C52.3274 29.856 51.5854 29.674 51.0347 29.31C50.4934 28.9553 50.2227 28.47 50.2227 27.854C50.2227 27.294 50.4887 26.8693 51.0207 26.58C50.7221 26.2813 50.5727 25.922 50.5727 25.502C50.5727 24.9327 50.8481 24.5033 51.3987 24.214C50.9694 23.7847 50.7547 23.234 50.7547 22.562C50.7547 22.1233 50.8527 21.7267 51.0487 21.372C51.2541 21.0173 51.5434 20.7373 51.9167 20.532C52.2901 20.3267 52.7287 20.224 53.2327 20.224C53.8114 20.224 54.3107 20.3827 54.7307 20.7L55.7527 19.496L56.5927 20.364L55.3747 21.344C55.5894 21.6987 55.6967 22.1047 55.6967 22.562C55.6967 23.0007 55.5941 23.3973 55.3887 23.752C55.1927 24.1067 54.9081 24.3867 54.5347 24.592C54.1707 24.7973 53.7367 24.9 53.2327 24.9C52.8034 24.9 52.3927 24.8067 52.0007 24.62C51.7394 24.8067 51.6087 25.0353 51.6087 25.306C51.6087 25.5487 51.6881 25.7307 51.8467 25.852C52.0054 25.9733 52.2621 26.034 52.6167 26.034H54.5627C55.0387 26.034 55.4587 26.1553 55.8227 26.398C56.1961 26.6407 56.3827 27.0373 56.3827 27.588C56.3827 28.3067 56.0981 28.862 55.5287 29.254C54.9594 29.6553 54.2034 29.856 53.2607 29.856ZM53.2327 23.934C53.6341 23.934 53.9467 23.8127 54.1707 23.57C54.3947 23.318 54.5067 22.982 54.5067 22.562C54.5067 22.142 54.3947 21.8107 54.1707 21.568C53.9467 21.316 53.6341 21.19 53.2327 21.19C52.8407 21.19 52.5281 21.316 52.2947 21.568C52.0614 21.8107 51.9447 22.142 51.9447 22.562C51.9447 22.982 52.0567 23.318 52.2807 23.57C52.5047 23.8127 52.8221 23.934 53.2327 23.934ZM53.2607 28.904C53.9047 28.904 54.3947 28.8013 54.7307 28.596C55.0667 28.4 55.2347 28.1107 55.2347 27.728C55.2347 27.28 54.9594 27.056 54.4087 27.056H52.4627C52.1454 27.056 51.8747 27.0093 51.6507 26.916C51.4547 27.1307 51.3567 27.3873 51.3567 27.686C51.3567 28.0687 51.5154 28.3673 51.8327 28.582C52.1594 28.7967 52.6354 28.904 53.2607 28.904ZM60.3243 27.196C59.6616 27.196 59.0876 27.0467 58.6023 26.748C58.1263 26.4493 57.7576 26.0387 57.4963 25.516C57.2443 24.984 57.1183 24.3773 57.1183 23.696C57.1183 23.0147 57.2489 22.4127 57.5103 21.89C57.7716 21.358 58.1356 20.9473 58.6023 20.658C59.0689 20.3687 59.6056 20.224 60.2123 20.224C61.0989 20.224 61.7989 20.5133 62.3123 21.092C62.8256 21.6613 63.0823 22.45 63.0823 23.458C63.0823 23.5793 63.0729 23.7613 63.0543 24.004H58.3503C58.4063 24.6667 58.6116 25.194 58.9663 25.586C59.3303 25.9687 59.7969 26.16 60.3663 26.16C61.1316 26.16 61.7476 25.8333 62.2143 25.18L63.0263 25.894C62.6903 26.3607 62.3123 26.6967 61.8923 26.902C61.4723 27.098 60.9496 27.196 60.3243 27.196ZM61.9343 23.038C61.8969 22.4313 61.7196 21.9833 61.4023 21.694C61.0849 21.3953 60.6743 21.246 60.1703 21.246C59.6943 21.246 59.2976 21.4 58.9803 21.708C58.6723 22.016 58.4763 22.4593 58.3923 23.038H61.9343ZM64.7297 27V20.42H65.8077L65.9617 21.358C66.1764 20.9847 66.4284 20.7047 66.7177 20.518C67.0164 20.322 67.3897 20.224 67.8377 20.224C68.1644 20.224 68.435 20.2707 68.6497 20.364V21.554C68.519 21.498 68.3604 21.4513 68.1737 21.414C67.9964 21.3767 67.8284 21.358 67.6697 21.358C66.979 21.358 66.4097 21.778 65.9617 22.618V27H64.7297Z" fill="white"/>
</svg>
