<svg width="117" height="44" viewBox="0 0 117 44" fill="none" xmlns="http://www.w3.org/2000/svg">
<rect width="117" height="44" fill="#2E2E34"/>
<rect x="10" y="6" width="97" height="32" rx="8" fill="white" fill-opacity="0.07"/>
<rect x="10.5" y="6.5" width="96" height="31" rx="7.5" stroke="white" stroke-opacity="0.03"/>
<path d="M29.92 27.196C29.0613 27.196 28.338 27.0187 27.75 26.664C27.162 26.3093 26.7047 25.8427 26.378 25.264L27.386 24.41C27.7033 24.942 28.058 25.3433 28.45 25.614C28.8513 25.8753 29.3647 26.006 29.99 26.006C30.6433 26.006 31.1473 25.8613 31.502 25.572C31.866 25.2827 32.048 24.8673 32.048 24.326C32.048 23.8407 31.8473 23.472 31.446 23.22C31.0447 22.968 30.452 22.7487 29.668 22.562C28.8 22.3567 28.1047 22.0487 27.582 21.638C27.0593 21.2273 26.798 20.6113 26.798 19.79C26.798 19.2487 26.938 18.7773 27.218 18.376C27.5073 17.9747 27.8947 17.6713 28.38 17.466C28.8653 17.2513 29.402 17.144 29.99 17.144C30.7273 17.144 31.3713 17.3073 31.922 17.634C32.482 17.9513 32.93 18.39 33.266 18.95L32.342 19.72C31.9967 19.216 31.6513 18.8567 31.306 18.642C30.9607 18.4273 30.522 18.32 29.99 18.32C29.4113 18.32 28.9447 18.446 28.59 18.698C28.2447 18.9407 28.072 19.2907 28.072 19.748C28.072 20.0747 28.1607 20.3407 28.338 20.546C28.5247 20.7513 28.772 20.9193 29.08 21.05C29.388 21.1713 29.8033 21.2973 30.326 21.428C30.9607 21.5867 31.4927 21.7687 31.922 21.974C32.3513 22.1793 32.6967 22.4687 32.958 22.842C33.2287 23.206 33.364 23.6773 33.364 24.256C33.364 25.1707 33.056 25.8893 32.44 26.412C31.824 26.9347 30.984 27.196 29.92 27.196ZM37.752 27.196C37.0893 27.196 36.5153 27.0467 36.03 26.748C35.554 26.4493 35.1853 26.0387 34.924 25.516C34.672 24.984 34.546 24.3773 34.546 23.696C34.546 23.0147 34.6767 22.4127 34.938 21.89C35.1993 21.358 35.5633 20.9473 36.03 20.658C36.4967 20.3687 37.0333 20.224 37.64 20.224C38.5267 20.224 39.2267 20.5133 39.74 21.092C40.2533 21.6613 40.51 22.45 40.51 23.458C40.51 23.5793 40.5007 23.7613 40.482 24.004H35.778C35.834 24.6667 36.0393 25.194 36.394 25.586C36.758 25.9687 37.2247 26.16 37.794 26.16C38.5593 26.16 39.1753 25.8333 39.642 25.18L40.454 25.894C40.118 26.3607 39.74 26.6967 39.32 26.902C38.9 27.098 38.3773 27.196 37.752 27.196ZM39.362 23.038C39.3247 22.4313 39.1473 21.9833 38.83 21.694C38.5127 21.3953 38.102 21.246 37.598 21.246C37.122 21.246 36.7253 21.4 36.408 21.708C36.1 22.016 35.904 22.4593 35.82 23.038H39.362ZM45.1068 27.196C44.5188 27.196 43.9822 27.0607 43.4968 26.79C43.0208 26.51 42.6382 26.1087 42.3488 25.586C42.0688 25.0633 41.9288 24.438 41.9288 23.71C41.9288 22.982 42.0735 22.3567 42.3628 21.834C42.6522 21.302 43.0395 20.9007 43.5248 20.63C44.0102 20.3593 44.5468 20.224 45.1348 20.224C45.7508 20.224 46.2875 20.3593 46.7448 20.63C47.2022 20.9007 47.5568 21.302 47.8088 21.834L46.8428 22.478C46.6468 22.086 46.4088 21.792 46.1288 21.596C45.8582 21.4 45.5175 21.302 45.1068 21.302C44.5375 21.302 44.0755 21.512 43.7208 21.932C43.3755 22.3427 43.2028 22.9353 43.2028 23.71C43.2028 24.4753 43.3802 25.068 43.7348 25.488C44.0895 25.908 44.5422 26.118 45.0928 26.118C45.5502 26.118 45.9235 26.0107 46.2128 25.796C46.5022 25.572 46.7495 25.2593 46.9548 24.858L47.8788 25.544C47.5895 26.076 47.2115 26.4867 46.7448 26.776C46.2782 27.056 45.7322 27.196 45.1068 27.196ZM51.9004 27.196C51.3124 27.196 50.7804 27.0607 50.3044 26.79C49.8378 26.51 49.4644 26.1087 49.1844 25.586C48.9138 25.054 48.7784 24.4287 48.7784 23.71C48.7784 22.9913 48.9138 22.3707 49.1844 21.848C49.4644 21.316 49.8378 20.9147 50.3044 20.644C50.7804 20.364 51.3124 20.224 51.9004 20.224C52.4884 20.224 53.0158 20.364 53.4824 20.644C53.9584 20.9147 54.3318 21.316 54.6024 21.848C54.8824 22.3707 55.0224 22.9913 55.0224 23.71C55.0224 24.4287 54.8871 25.054 54.6164 25.586C54.3458 26.1087 53.9724 26.51 53.4964 26.79C53.0204 27.0607 52.4884 27.196 51.9004 27.196ZM51.9004 26.132C52.4698 26.132 52.9224 25.9267 53.2584 25.516C53.6038 25.096 53.7764 24.494 53.7764 23.71C53.7764 22.9353 53.6038 22.338 53.2584 21.918C52.9224 21.498 52.4698 21.288 51.9004 21.288C51.3311 21.288 50.8738 21.498 50.5284 21.918C50.1924 22.3287 50.0244 22.926 50.0244 23.71C50.0244 24.494 50.1924 25.096 50.5284 25.516C50.8738 25.9267 51.3311 26.132 51.9004 26.132ZM56.7043 27V20.42H57.8103L57.9503 21.302C58.165 20.9847 58.4403 20.728 58.7763 20.532C59.1216 20.3267 59.5136 20.224 59.9523 20.224C60.6523 20.224 61.1843 20.4247 61.5483 20.826C61.9123 21.2273 62.0943 21.792 62.0943 22.52V27H60.8483V22.618C60.8483 22.1887 60.7456 21.8573 60.5403 21.624C60.335 21.3907 60.0223 21.274 59.6023 21.274C59.2663 21.274 58.963 21.3627 58.6923 21.54C58.4216 21.7173 58.1743 21.988 57.9503 22.352V27H56.7043ZM66.6465 27.196C66.1332 27.196 65.6572 27.0607 65.2185 26.79C64.7798 26.5193 64.4298 26.1227 64.1685 25.6C63.9072 25.068 63.7765 24.438 63.7765 23.71C63.7765 22.982 63.9072 22.3567 64.1685 21.834C64.4298 21.302 64.7798 20.9007 65.2185 20.63C65.6572 20.3593 66.1332 20.224 66.6465 20.224C67.0665 20.224 67.4445 20.3033 67.7805 20.462C68.1258 20.6207 68.4058 20.8307 68.6205 21.092V16.78H69.8665V27H68.7885L68.6905 26.202C68.4758 26.5007 68.1912 26.7433 67.8365 26.93C67.4818 27.1073 67.0852 27.196 66.6465 27.196ZM66.9265 26.132C67.6078 26.132 68.1725 25.7913 68.6205 25.11V22.296C68.1725 21.624 67.6078 21.288 66.9265 21.288C66.4038 21.288 65.9558 21.4933 65.5825 21.904C65.2185 22.3147 65.0365 22.9167 65.0365 23.71C65.0365 24.5033 65.2185 25.1053 65.5825 25.516C65.9558 25.9267 66.4038 26.132 66.9265 26.132ZM73.7961 27.196C73.2174 27.196 72.7274 27.028 72.3261 26.692C71.9248 26.356 71.7241 25.8753 71.7241 25.25C71.7241 24.4753 72.0788 23.906 72.7881 23.542C73.4974 23.178 74.5241 22.9867 75.8681 22.968V22.646C75.8681 22.2073 75.7421 21.8667 75.4901 21.624C75.2381 21.3813 74.8834 21.26 74.4261 21.26C74.0994 21.26 73.7728 21.3347 73.4461 21.484C73.1194 21.624 72.8208 21.8293 72.5501 22.1L71.8921 21.288C72.1908 20.9613 72.5688 20.7047 73.0261 20.518C73.4834 20.322 73.9641 20.224 74.4681 20.224C75.3361 20.224 75.9941 20.4293 76.4421 20.84C76.8901 21.2507 77.1141 21.8527 77.1141 22.646V27H75.9941L75.8681 26.104C75.6721 26.4027 75.3874 26.6593 75.0141 26.874C74.6501 27.0887 74.2441 27.196 73.7961 27.196ZM74.0761 26.174C74.7854 26.174 75.3828 25.8147 75.8681 25.096V23.85C74.8694 23.878 74.1321 24.004 73.6561 24.228C73.1894 24.4427 72.9561 24.7693 72.9561 25.208C72.9561 25.5253 73.0541 25.768 73.2501 25.936C73.4554 26.0947 73.7308 26.174 74.0761 26.174ZM79.1535 27V20.42H80.2315L80.3855 21.358C80.6002 20.9847 80.8522 20.7047 81.1415 20.518C81.4402 20.322 81.8135 20.224 82.2615 20.224C82.5882 20.224 82.8588 20.2707 83.0735 20.364V21.554C82.9428 21.498 82.7842 21.4513 82.5975 21.414C82.4202 21.3767 82.2522 21.358 82.0935 21.358C81.4028 21.358 80.8335 21.778 80.3855 22.618V27H79.1535ZM84.8176 29.786C84.4256 29.786 84.1036 29.73 83.8516 29.618V28.526C84.1503 28.6567 84.4303 28.722 84.6916 28.722C85.0556 28.722 85.3449 28.6147 85.5596 28.4C85.7743 28.1853 85.9703 27.84 86.1476 27.364L86.3576 26.832L83.9076 20.42H85.2096L86.9456 25.25L88.7796 20.42H90.0396L87.0716 27.938C86.8289 28.5447 86.5256 29.002 86.1616 29.31C85.8069 29.6273 85.3589 29.786 84.8176 29.786Z" fill="white"/>
</svg>
