<svg width="101" height="44" viewBox="0 0 101 44" fill="none" xmlns="http://www.w3.org/2000/svg">
<rect width="101" height="44" fill="#2E2E34"/>
<rect x="10" y="6" width="81" height="32" rx="8" fill="#00863A"/>
<rect x="10.5" y="6.5" width="80" height="31" rx="7.5" stroke="white" stroke-opacity="0.08"/>
<path d="M29.92 27.196C29.0613 27.196 28.338 27.0187 27.75 26.664C27.162 26.3093 26.7047 25.8427 26.378 25.264L27.386 24.41C27.7033 24.942 28.058 25.3433 28.45 25.614C28.8513 25.8753 29.3647 26.006 29.99 26.006C30.6433 26.006 31.1473 25.8613 31.502 25.572C31.866 25.2827 32.048 24.8673 32.048 24.326C32.048 23.8407 31.8473 23.472 31.446 23.22C31.0447 22.968 30.452 22.7487 29.668 22.562C28.8 22.3567 28.1047 22.0487 27.582 21.638C27.0593 21.2273 26.798 20.6113 26.798 19.79C26.798 19.2487 26.938 18.7773 27.218 18.376C27.5073 17.9747 27.8947 17.6713 28.38 17.466C28.8653 17.2513 29.402 17.144 29.99 17.144C30.7273 17.144 31.3713 17.3073 31.922 17.634C32.482 17.9513 32.93 18.39 33.266 18.95L32.342 19.72C31.9967 19.216 31.6513 18.8567 31.306 18.642C30.9607 18.4273 30.522 18.32 29.99 18.32C29.4113 18.32 28.9447 18.446 28.59 18.698C28.2447 18.9407 28.072 19.2907 28.072 19.748C28.072 20.0747 28.1607 20.3407 28.338 20.546C28.5247 20.7513 28.772 20.9193 29.08 21.05C29.388 21.1713 29.8033 21.2973 30.326 21.428C30.9607 21.5867 31.4927 21.7687 31.922 21.974C32.3513 22.1793 32.6967 22.4687 32.958 22.842C33.2287 23.206 33.364 23.6773 33.364 24.256C33.364 25.1707 33.056 25.8893 32.44 26.412C31.824 26.9347 30.984 27.196 29.92 27.196ZM37.094 27.196C36.394 27.196 35.862 26.9953 35.498 26.594C35.1433 26.1927 34.966 25.628 34.966 24.9V20.42H36.212V24.788C36.212 25.2173 36.31 25.5533 36.506 25.796C36.7113 26.0293 37.024 26.146 37.444 26.146C37.7893 26.146 38.0927 26.0573 38.354 25.88C38.6247 25.7027 38.8767 25.432 39.11 25.068V20.42H40.356V27H39.25L39.11 26.118C38.8953 26.4353 38.6153 26.6967 38.27 26.902C37.9247 27.098 37.5327 27.196 37.094 27.196ZM45.2162 27.196C44.6282 27.196 44.0915 27.0607 43.6062 26.79C43.1302 26.51 42.7475 26.1087 42.4582 25.586C42.1782 25.0633 42.0382 24.438 42.0382 23.71C42.0382 22.982 42.1829 22.3567 42.4722 21.834C42.7615 21.302 43.1489 20.9007 43.6342 20.63C44.1195 20.3593 44.6562 20.224 45.2442 20.224C45.8602 20.224 46.3969 20.3593 46.8542 20.63C47.3115 20.9007 47.6662 21.302 47.9182 21.834L46.9522 22.478C46.7562 22.086 46.5182 21.792 46.2382 21.596C45.9675 21.4 45.6269 21.302 45.2162 21.302C44.6469 21.302 44.1849 21.512 43.8302 21.932C43.4849 22.3427 43.3122 22.9353 43.3122 23.71C43.3122 24.4753 43.4895 25.068 43.8442 25.488C44.1989 25.908 44.6515 26.118 45.2022 26.118C45.6595 26.118 46.0329 26.0107 46.3222 25.796C46.6115 25.572 46.8589 25.2593 47.0642 24.858L47.9882 25.544C47.6989 26.076 47.3209 26.4867 46.8542 26.776C46.3875 27.056 45.8415 27.196 45.2162 27.196ZM52.0658 27.196C51.4778 27.196 50.9411 27.0607 50.4558 26.79C49.9798 26.51 49.5971 26.1087 49.3078 25.586C49.0278 25.0633 48.8878 24.438 48.8878 23.71C48.8878 22.982 49.0325 22.3567 49.3218 21.834C49.6111 21.302 49.9985 20.9007 50.4838 20.63C50.9691 20.3593 51.5058 20.224 52.0938 20.224C52.7098 20.224 53.2465 20.3593 53.7038 20.63C54.1611 20.9007 54.5158 21.302 54.7678 21.834L53.8018 22.478C53.6058 22.086 53.3678 21.792 53.0878 21.596C52.8171 21.4 52.4765 21.302 52.0658 21.302C51.4965 21.302 51.0345 21.512 50.6798 21.932C50.3345 22.3427 50.1618 22.9353 50.1618 23.71C50.1618 24.4753 50.3391 25.068 50.6938 25.488C51.0485 25.908 51.5011 26.118 52.0518 26.118C52.5091 26.118 52.8825 26.0107 53.1718 25.796C53.4611 25.572 53.7085 25.2593 53.9138 24.858L54.8378 25.544C54.5485 26.076 54.1705 26.4867 53.7038 26.776C53.2371 27.056 52.6911 27.196 52.0658 27.196ZM58.9434 27.196C58.2808 27.196 57.7068 27.0467 57.2214 26.748C56.7454 26.4493 56.3768 26.0387 56.1154 25.516C55.8634 24.984 55.7374 24.3773 55.7374 23.696C55.7374 23.0147 55.8681 22.4127 56.1294 21.89C56.3908 21.358 56.7548 20.9473 57.2214 20.658C57.6881 20.3687 58.2248 20.224 58.8314 20.224C59.7181 20.224 60.4181 20.5133 60.9314 21.092C61.4448 21.6613 61.7014 22.45 61.7014 23.458C61.7014 23.5793 61.6921 23.7613 61.6734 24.004H56.9694C57.0254 24.6667 57.2308 25.194 57.5854 25.586C57.9494 25.9687 58.4161 26.16 58.9854 26.16C59.7508 26.16 60.3668 25.8333 60.8334 25.18L61.6454 25.894C61.3094 26.3607 60.9314 26.6967 60.5114 26.902C60.0914 27.098 59.5688 27.196 58.9434 27.196ZM60.5534 23.038C60.5161 22.4313 60.3388 21.9833 60.0214 21.694C59.7041 21.3953 59.2934 21.246 58.7894 21.246C58.3134 21.246 57.9168 21.4 57.5994 21.708C57.2914 22.016 57.0954 22.4593 57.0114 23.038H60.5534ZM65.5048 27.196C64.9635 27.196 64.4548 27.084 63.9788 26.86C63.5122 26.6267 63.1482 26.2953 62.8868 25.866L63.7548 25.138C63.9788 25.4927 64.2355 25.7587 64.5248 25.936C64.8235 26.104 65.1782 26.188 65.5888 26.188C65.9528 26.188 66.2468 26.0993 66.4708 25.922C66.6948 25.7353 66.8068 25.488 66.8068 25.18C66.8068 24.8907 66.6995 24.6807 66.4848 24.55C66.2702 24.41 65.9155 24.284 65.4208 24.172L65.0288 24.088C64.4502 23.9573 63.9835 23.752 63.6288 23.472C63.2835 23.192 63.1108 22.7627 63.1108 22.184C63.1108 21.5493 63.3302 21.064 63.7688 20.728C64.2168 20.392 64.7908 20.224 65.4908 20.224C66.0508 20.224 66.5128 20.3267 66.8768 20.532C67.2502 20.728 67.5815 21.022 67.8708 21.414L67.0308 22.114C66.6295 21.526 66.1068 21.232 65.4628 21.232C65.1175 21.232 64.8282 21.3113 64.5948 21.47C64.3615 21.6287 64.2448 21.848 64.2448 22.128C64.2448 22.408 64.3615 22.618 64.5948 22.758C64.8282 22.8887 65.2295 23.0147 65.7988 23.136L66.1488 23.206C66.7182 23.3273 67.1708 23.528 67.5068 23.808C67.8522 24.088 68.0248 24.508 68.0248 25.068C68.0248 25.7307 67.7915 26.2533 67.3248 26.636C66.8675 27.0093 66.2608 27.196 65.5048 27.196ZM71.7392 27.196C71.1979 27.196 70.6892 27.084 70.2132 26.86C69.7465 26.6267 69.3825 26.2953 69.1212 25.866L69.9892 25.138C70.2132 25.4927 70.4699 25.7587 70.7592 25.936C71.0579 26.104 71.4125 26.188 71.8232 26.188C72.1872 26.188 72.4812 26.0993 72.7052 25.922C72.9292 25.7353 73.0412 25.488 73.0412 25.18C73.0412 24.8907 72.9339 24.6807 72.7192 24.55C72.5045 24.41 72.1499 24.284 71.6552 24.172L71.2632 24.088C70.6845 23.9573 70.2179 23.752 69.8632 23.472C69.5179 23.192 69.3452 22.7627 69.3452 22.184C69.3452 21.5493 69.5645 21.064 70.0032 20.728C70.4512 20.392 71.0252 20.224 71.7252 20.224C72.2852 20.224 72.7472 20.3267 73.1112 20.532C73.4845 20.728 73.8159 21.022 74.1052 21.414L73.2652 22.114C72.8639 21.526 72.3412 21.232 71.6972 21.232C71.3519 21.232 71.0625 21.3113 70.8292 21.47C70.5959 21.6287 70.4792 21.848 70.4792 22.128C70.4792 22.408 70.5959 22.618 70.8292 22.758C71.0625 22.8887 71.4639 23.0147 72.0332 23.136L72.3832 23.206C72.9525 23.3273 73.4052 23.528 73.7412 23.808C74.0865 24.088 74.2592 24.508 74.2592 25.068C74.2592 25.7307 74.0259 26.2533 73.5592 26.636C73.1019 27.0093 72.4952 27.196 71.7392 27.196Z" fill="white"/>
</svg>
