<svg width="81" height="64" viewBox="0 0 81 64" fill="none" xmlns="http://www.w3.org/2000/svg">
<path fill-rule="evenodd" clip-rule="evenodd" d="M38.4 64C41.7149 64 44.9316 63.65 48 62.9919V45.8595C45.1759 47.2208 41.8972 48 38.4 48C27.7961 48 19.2 40.8366 19.2 32C19.2 23.1634 27.7961 16 38.4 16C41.8972 16 45.1759 16.7792 48 18.1405V1.00814C44.9316 0.350024 41.7149 0 38.4 0C17.1923 0 0 14.3269 0 32C0 49.6731 17.1923 64 38.4 64Z" fill="white" fill-opacity="0.8"/>
<path fill-rule="evenodd" clip-rule="evenodd" d="M66 64H54V37L66 49V64ZM69 64H81V37L69 49V64Z" fill="white" fill-opacity="0.8"/>
</svg>
