<svg width="250" height="76" viewBox="0 0 250 76" fill="none" xmlns="http://www.w3.org/2000/svg">
<path fill-rule="evenodd" clip-rule="evenodd" d="M43.6 10C46.5005 10 49.3152 10.3063 52 10.8821V25.873C49.5289 24.6818 46.66 24 43.6 24C34.3216 24 26.8 30.268 26.8 38C26.8 45.732 34.3216 52 43.6 52C46.66 52 49.5289 51.3182 52 50.127V65.1179C49.3152 65.6937 46.5005 66 43.6 66C25.0432 66 10 53.464 10 38C10 22.536 25.0432 10 43.6 10Z" fill="black" fill-opacity="0.8"/>
<path fill-rule="evenodd" clip-rule="evenodd" d="M67.75 66H57.25V42.375L67.75 52.875V66ZM70.375 66H80.875V42.375L70.375 52.875V66Z" fill="black" fill-opacity="0.8"/>
<path d="M213.417 10C212.694 11.2818 212.045 12.6077 211.454 13.9632C205.846 13.1234 200.135 13.1234 194.512 13.9632C193.937 12.6077 193.273 11.2818 192.55 10C187.281 10.8987 182.145 12.4751 177.275 14.6998C167.624 28.9761 165.012 42.884 166.31 56.6003C171.963 60.7698 178.294 63.9521 185.038 65.9852C186.558 63.9521 187.901 61.7863 189.052 59.5322C186.868 58.7219 184.758 57.7053 182.736 56.5267C183.267 56.1437 183.784 55.7459 184.285 55.3628C196.136 60.9319 209.861 60.9319 221.726 55.3628C222.228 55.7753 222.744 56.1731 223.275 56.5267C221.254 57.7201 219.143 58.7219 216.944 59.547C218.095 61.8011 219.438 63.9669 220.958 66C227.703 63.9669 234.034 60.7992 239.686 56.6299C241.221 40.7182 237.059 26.9282 228.691 14.7146C223.836 12.4899 218.7 10.9134 213.432 10.0295L213.417 10ZM190.705 48.1584C187.06 48.1584 184.034 44.8582 184.034 40.7772C184.034 36.6962 186.942 33.3812 190.69 33.3812C194.439 33.3812 197.42 36.7109 197.361 40.7772C197.302 44.8435 194.424 48.1584 190.705 48.1584ZM215.291 48.1584C211.631 48.1584 208.636 44.8582 208.636 40.7772C208.636 36.6962 211.543 33.3812 215.291 33.3812C219.04 33.3812 222.006 36.7109 221.947 40.7772C221.888 44.8435 219.01 48.1584 215.291 48.1584Z" fill="black" fill-opacity="0.8"/>
<path d="M107 24H111V28H107V24ZM103 28H107V32H103V28ZM99 32H103V36H99V32ZM95 36H99V40H95V36ZM99 40H103V44H99V40ZM103 44H107V48H103V44ZM107 48H111V52H107V48ZM115 36H135V40H115V36ZM139 24H143V28H139V24ZM143 28H147V32H143V28ZM147 32H151V36H147V32ZM151 36H155V40H151V36ZM147 40H151V44H147V40ZM143 44H147V48H143V44ZM139 48H143V52H139V48Z" fill="black" fill-opacity="0.8"/>
</svg>
