<svg width="101" height="44" viewBox="0 0 101 44" fill="none" xmlns="http://www.w3.org/2000/svg">
<rect width="101" height="44" fill="#2E2E34"/>
<rect x="10" y="6" width="81" height="32" rx="8" fill="#5865F2"/>
<rect x="10.5" y="6.5" width="80" height="31" rx="7.5" stroke="white" stroke-opacity="0.08"/>
<path d="M27.134 27V17.34H31.068C31.992 17.34 32.7153 17.6153 33.238 18.166C33.7607 18.7073 34.022 19.454 34.022 20.406C34.022 21.3673 33.7607 22.128 33.238 22.688C32.7153 23.2387 31.992 23.514 31.068 23.514H28.45V27H27.134ZM30.914 22.296C31.4833 22.296 31.922 22.1467 32.23 21.848C32.5473 21.54 32.706 21.0687 32.706 20.434C32.706 19.7993 32.5473 19.328 32.23 19.02C31.922 18.712 31.4833 18.558 30.914 18.558H28.45V22.296H30.914ZM35.677 27V20.42H36.755L36.909 21.358C37.1236 20.9847 37.3756 20.7047 37.665 20.518C37.9636 20.322 38.337 20.224 38.785 20.224C39.1116 20.224 39.3823 20.2707 39.597 20.364V21.554C39.4663 21.498 39.3076 21.4513 39.121 21.414C38.9436 21.3767 38.7756 21.358 38.617 21.358C37.9263 21.358 37.357 21.778 36.909 22.618V27H35.677ZM41.6933 18.964C41.46 18.964 41.2687 18.8893 41.1193 18.74C40.97 18.5907 40.8953 18.3993 40.8953 18.166C40.8953 17.9233 40.97 17.732 41.1193 17.592C41.2687 17.4427 41.46 17.368 41.6933 17.368C41.936 17.368 42.1273 17.4427 42.2673 17.592C42.4167 17.732 42.4913 17.9233 42.4913 18.166C42.4913 18.3993 42.4167 18.5907 42.2673 18.74C42.1273 18.8893 41.936 18.964 41.6933 18.964ZM42.3233 27H41.0773V20.42H42.3233V27ZM51.6233 20.224C52.2579 20.224 52.7666 20.4247 53.1493 20.826C53.5319 21.218 53.7233 21.7593 53.7233 22.45V27H52.4773V22.576C52.4773 22.1747 52.3606 21.8573 52.1273 21.624C51.9033 21.3907 51.5953 21.274 51.2033 21.274C50.5966 21.274 50.0926 21.6147 49.6913 22.296V27H48.4453V22.576C48.4453 22.1653 48.3286 21.848 48.0953 21.624C47.8619 21.3907 47.5539 21.274 47.1713 21.274C46.5273 21.274 46.0233 21.6147 45.6593 22.296V27H44.4133V20.42H45.5053L45.6593 21.246C46.0979 20.5647 46.7373 20.224 47.5773 20.224C48.0533 20.224 48.4546 20.3313 48.7813 20.546C49.1079 20.7513 49.3459 21.0313 49.4953 21.386C49.7099 21.0407 50.0039 20.7607 50.3773 20.546C50.7506 20.3313 51.1659 20.224 51.6233 20.224ZM57.636 27.196C57.0573 27.196 56.5673 27.028 56.166 26.692C55.7646 26.356 55.564 25.8753 55.564 25.25C55.564 24.4753 55.9186 23.906 56.628 23.542C57.3373 23.178 58.364 22.9867 59.708 22.968V22.646C59.708 22.2073 59.582 21.8667 59.33 21.624C59.078 21.3813 58.7233 21.26 58.266 21.26C57.9393 21.26 57.6126 21.3347 57.286 21.484C56.9593 21.624 56.6606 21.8293 56.39 22.1L55.732 21.288C56.0306 20.9613 56.4086 20.7047 56.866 20.518C57.3233 20.322 57.804 20.224 58.308 20.224C59.176 20.224 59.834 20.4293 60.282 20.84C60.73 21.2507 60.954 21.8527 60.954 22.646V27H59.834L59.708 26.104C59.512 26.4027 59.2273 26.6593 58.854 26.874C58.49 27.0887 58.084 27.196 57.636 27.196ZM57.916 26.174C58.6253 26.174 59.2226 25.8147 59.708 25.096V23.85C58.7093 23.878 57.972 24.004 57.496 24.228C57.0293 24.4427 56.796 24.7693 56.796 25.208C56.796 25.5253 56.894 25.768 57.09 25.936C57.2953 26.0947 57.5706 26.174 57.916 26.174ZM62.9934 27V20.42H64.0714L64.2254 21.358C64.44 20.9847 64.692 20.7047 64.9814 20.518C65.28 20.322 65.6534 20.224 66.1014 20.224C66.428 20.224 66.6987 20.2707 66.9134 20.364V21.554C66.7827 21.498 66.624 21.4513 66.4374 21.414C66.26 21.3767 66.092 21.358 65.9334 21.358C65.2427 21.358 64.6734 21.778 64.2254 22.618V27H62.9934ZM68.6575 29.786C68.2655 29.786 67.9435 29.73 67.6915 29.618V28.526C67.9901 28.6567 68.2701 28.722 68.5315 28.722C68.8955 28.722 69.1848 28.6147 69.3995 28.4C69.6141 28.1853 69.8101 27.84 69.9875 27.364L70.1975 26.832L67.7475 20.42H69.0495L70.7855 25.25L72.6195 20.42H73.8795L70.9115 27.938C70.6688 28.5447 70.3655 29.002 70.0015 29.31C69.6468 29.6273 69.1988 29.786 68.6575 29.786Z" fill="white"/>
</svg>
