<svg width="102" height="44" viewBox="0 0 102 44" fill="none" xmlns="http://www.w3.org/2000/svg">
<rect width="102" height="44" fill="#2E2E34"/>
<rect x="10" y="6" width="82" height="32" rx="8" fill="white" fill-opacity="0.07"/>
<rect x="10.5" y="6.5" width="81" height="31" rx="7.5" stroke="white" stroke-opacity="0.03"/>
<path d="M33.238 27H27.134V17.34H28.45V25.782H33.238V27ZM35.5 18.964C35.2667 18.964 35.0753 18.8893 34.926 18.74C34.7767 18.5907 34.702 18.3993 34.702 18.166C34.702 17.9233 34.7767 17.732 34.926 17.592C35.0753 17.4427 35.2667 17.368 35.5 17.368C35.7427 17.368 35.934 17.4427 36.074 17.592C36.2233 17.732 36.298 17.9233 36.298 18.166C36.298 18.3993 36.2233 18.5907 36.074 18.74C35.934 18.8893 35.7427 18.964 35.5 18.964ZM36.13 27H34.884V20.42H36.13V27ZM38.2199 27V20.42H39.3259L39.4659 21.302C39.6806 20.9847 39.9559 20.728 40.2919 20.532C40.6373 20.3267 41.0293 20.224 41.4679 20.224C42.1679 20.224 42.6999 20.4247 43.0639 20.826C43.4279 21.2273 43.6099 21.792 43.6099 22.52V27H42.3639V22.618C42.3639 22.1887 42.2613 21.8573 42.0559 21.624C41.8506 21.3907 41.5379 21.274 41.1179 21.274C40.7819 21.274 40.4786 21.3627 40.2079 21.54C39.9373 21.7173 39.6899 21.988 39.4659 22.352V27H38.2199ZM45.7121 27V16.78H46.9581V22.94L49.7021 20.42H51.2421L48.6381 22.842C49.7954 24.1487 50.6728 25.5347 51.2701 27H49.8841C49.3894 25.7493 48.6894 24.6293 47.7841 23.64L46.9581 24.41V27H45.7121Z" fill="white"/>
<path d="M70 15.3333C70 15.1565 70.0702 14.987 70.1952 14.8619C70.3203 14.7369 70.4898 14.6667 70.6666 14.6667H74.6666C74.8434 14.6667 75.013 14.7369 75.138 14.8619C75.2631 14.987 75.3333 15.1565 75.3333 15.3333V19.3333C75.3333 19.5101 75.2631 19.6797 75.138 19.8047C75.013 19.9298 74.8434 20 74.6666 20C74.4898 20 74.3203 19.9298 74.1952 19.8047C74.0702 19.6797 74 19.5101 74 19.3333V16.94L71.1333 19.8067C71.073 19.876 70.9991 19.9321 70.9161 19.9715C70.8331 20.0109 70.7429 20.0327 70.6511 20.0356C70.5592 20.0385 70.4678 20.0224 70.3825 19.9883C70.2972 19.9541 70.2199 19.9027 70.1554 19.8373C70.0909 19.7719 70.0407 19.6939 70.0077 19.6081C69.9748 19.5223 69.96 19.4307 69.9642 19.3389C69.9684 19.2472 69.9915 19.1573 70.032 19.0748C70.0726 18.9924 70.1298 18.9193 70.2 18.86L73.0533 16H70.6666C70.4898 16 70.3203 15.9298 70.1952 15.8047C70.0702 15.6797 70 15.5101 70 15.3333Z" fill="white"/>
<path d="M63.3334 15.3333C62.8029 15.3333 62.2942 15.544 61.9192 15.9191C61.5441 16.2942 61.3334 16.8029 61.3334 17.3333V26.6667C61.3334 27.1971 61.5441 27.7058 61.9192 28.0809C62.2942 28.456 62.8029 28.6667 63.3334 28.6667H72.6667C73.1971 28.6667 73.7058 28.456 74.0809 28.0809C74.456 27.7058 74.6667 27.1971 74.6667 26.6667V22.6667C74.6667 22.4899 74.5965 22.3203 74.4714 22.1953C74.3464 22.0702 74.1769 22 74 22C73.8232 22 73.6537 22.0702 73.5286 22.1953C73.4036 22.3203 73.3334 22.4899 73.3334 22.6667V26.6667C73.3334 26.8435 73.2631 27.013 73.1381 27.1381C73.0131 27.2631 72.8435 27.3333 72.6667 27.3333H63.3334C63.1566 27.3333 62.987 27.2631 62.862 27.1381C62.7369 27.013 62.6667 26.8435 62.6667 26.6667V17.3333C62.6667 17.1565 62.7369 16.987 62.862 16.8619C62.987 16.7369 63.1566 16.6667 63.3334 16.6667H67.3334C67.5102 16.6667 67.6798 16.5964 67.8048 16.4714C67.9298 16.3464 68 16.1768 68 16C68 15.8232 67.9298 15.6536 67.8048 15.5286C67.6798 15.4036 67.5102 15.3333 67.3334 15.3333H63.3334Z" fill="white"/>
</svg>
